<svg width="50" height="50" viewBox="0 0 50 50" fill="none" xmlns="http://www.w3.org/2000/svg">
<path d="M47 23.6095C47 20.9573 44.6821 18.4138 40.5563 16.5384C36.4305 14.663 30.8348 13.6095 25 13.6095C19.1652 13.6095 13.5695 14.663 9.44365 16.5384C5.31785 18.4138 3 20.9573 3 23.6095L5.2 23.6095C5.2 21.2225 7.28607 18.9333 10.9993 17.2455C14.7125 15.5577 19.7487 14.6095 25 14.6095C30.2513 14.6095 35.2875 15.5577 39.0007 17.2455C42.7139 18.9333 44.8 21.2225 44.8 23.6095H47Z" fill="#CFCFCF"/>
<path d="M47 23.6095C47 26.2616 44.6821 28.8052 40.5563 30.6805C36.4305 32.5559 30.8348 33.6095 25 33.6095C19.1652 33.6095 13.5695 32.5559 9.44365 30.6805C5.31785 28.8052 3 26.2616 3 23.6095L5.2 23.6095C5.2 25.9964 7.28607 28.2856 10.9993 29.9734C14.7125 31.6613 19.7487 32.6095 25 32.6095C30.2513 32.6095 35.2875 31.6613 39.0007 29.9734C42.7139 28.2856 44.8 25.9964 44.8 23.6095H47Z" fill="#CFCFCF"/>
<path d="M19.3361 23.6095L25 14.1781" stroke="#CFCFCF" stroke-linecap="round"/>
<path d="M25 33.0408L30.6639 23.6095" stroke="#CFCFCF" stroke-linecap="round"/>
<path d="M25 33.0408L19.3361 23.6095" stroke="#CFCFCF" stroke-linecap="round"/>
<path d="M30.6639 23.6095L25 14.1781" stroke="#CFCFCF" stroke-linecap="round"/>
<path d="M19.3361 23.6095L30.6639 23.6095" stroke="#CFCFCF" stroke-linecap="round"/>
</svg>
